{
	"asset":{
		"generator":"Khronos glTF Blender I/O v4.0.43",
		"version":"2.0"
	},
	"scene":0,
	"scenes":[
		{
			"name":"Scene",
			"nodes":[
				0,
				1,
				2
			]
		}
	],
	"nodes":[
		{
			"name":"Empty",
			"translation":[
				0.6400676965713501,
				0,
				1.0217323303222656
			]
		},
		{
			"mesh":0,
			"name":"Plane"
		},
		{
			"name":"Plane.001"
		}
	],
	"materials":[
		{
			"doubleSided":true,
			"name":"Material.001",
			"pbrMetallicRoughness":{
				"baseColorFactor":[
					0.3564595878124237,
					0.71566241979599,
					0.4792855679988861,
					1
				],
				"metallicFactor":0,
				"roughnessFactor":0.5
			}
		}
	],
	"meshes":[
		{
			"name":"Plane",
			"primitives":[
				{
					"attributes":{
						"POSITION":0,
						"NORMAL":1,
						"TEXCOORD_0":2
					},
					"indices":3,
					"material":0
				}
			]
		}
	],
	"accessors":[
		{
			"bufferView":0,
			"componentType":5126,
			"count":1176,
			"max":[
				1.7313419580459595,
				0.14916925132274628,
				0.6576942205429077
			],
			"min":[
				-1.675397276878357,
				0,
				-0.6332812905311584
			],
			"type":"VEC3"
		},
		{
			"bufferView":1,
			"componentType":5126,
			"count":1176,
			"type":"VEC3"
		},
		{
			"bufferView":2,
			"componentType":5126,
			"count":1176,
			"type":"VEC2"
		},
		{
			"bufferView":3,
			"componentType":5123,
			"count":2340,
			"type":"SCALAR"
		}
	],
	"bufferViews":[
		{
			"buffer":0,
			"byteLength":14112,
			"byteOffset":0,
			"target":34962
		},
		{
			"buffer":0,
			"byteLength":14112,
			"byteOffset":14112,
			"target":34962
		},
		{
			"buffer":0,
			"byteLength":9408,
			"byteOffset":28224,
			"target":34962
		},
		{
			"buffer":0,
			"byteLength":4680,
			"byteOffset":37632,
			"target":34963
		}
	],
	"buffers":[
		{
			"byteLength":42312,
			"uri":"Puerto%20Rico.bin"
		}
	]
}
