{
	"asset":{
		"generator":"Khronos glTF Blender I/O v4.0.43",
		"version":"2.0"
	},
	"scene":0,
	"scenes":[
		{
			"name":"Scene",
			"nodes":[
				0,
				1,
				2
			]
		}
	],
	"nodes":[
		{
			"name":"Empty",
			"translation":[
				0.6400676965713501,
				0,
				1.0217323303222656
			]
		},
		{
			"mesh":0,
			"name":"Puerto Rico",
			"translation":[
				0,
				0.010768165811896324,
				0
			]
		},
		{
			"mesh":1,
			"name":"Water",
			"scale":[
				2.0549299716949463,
				1,
				1.5968847274780273
			],
			"translation":[
				0,
				-1.6375197172164917,
				0
			]
		}
	],
	"materials":[
		{
			"doubleSided":true,
			"name":"Material.001",
			"pbrMetallicRoughness":{
				"baseColorTexture":{
					"index":0
				},
				"metallicFactor":0,
				"roughnessFactor":0.5
			}
		},
		{
			"doubleSided":true,
			"emissiveFactor":[
				0.004889351574917905,
				0.01012170851411981,
				0.004823074561701335
			],
			"name":"Material.002",
			"pbrMetallicRoughness":{
				"baseColorFactor":[
					0,
					0,
					0,
					1
				]
			}
		}
	],
	"meshes":[
		{
			"name":"Plane",
			"primitives":[
				{
					"attributes":{
						"POSITION":0,
						"NORMAL":1,
						"TEXCOORD_0":2
					},
					"indices":3,
					"material":0
				}
			]
		},
		{
			"name":"Cube",
			"primitives":[
				{
					"attributes":{
						"POSITION":4,
						"NORMAL":5,
						"TEXCOORD_0":6
					},
					"indices":7,
					"material":1
				}
			]
		}
	],
	"textures":[
		{
			"sampler":0,
			"source":0
		}
	],
	"images":[
		{
			"mimeType":"image/png",
			"name":"Albedo",
			"uri":"Albedo.png"
		}
	],
	"accessors":[
		{
			"bufferView":0,
			"componentType":5126,
			"count":812,
			"max":[
				1.7313419580459595,
				0,
				0.6576942205429077
			],
			"min":[
				-1.675397276878357,
				0,
				-0.6332812905311584
			],
			"type":"VEC3"
		},
		{
			"bufferView":1,
			"componentType":5126,
			"count":812,
			"type":"VEC3"
		},
		{
			"bufferView":2,
			"componentType":5126,
			"count":812,
			"type":"VEC2"
		},
		{
			"bufferView":3,
			"componentType":5123,
			"count":3855,
			"type":"SCALAR"
		},
		{
			"bufferView":4,
			"componentType":5126,
			"count":24,
			"max":[
				1.8339970111846924,
				1.6352214813232422,
				1.8339970111846924
			],
			"min":[
				-1.8339970111846924,
				0.10940492153167725,
				-1.8339970111846924
			],
			"type":"VEC3"
		},
		{
			"bufferView":5,
			"componentType":5126,
			"count":24,
			"type":"VEC3"
		},
		{
			"bufferView":6,
			"componentType":5126,
			"count":24,
			"type":"VEC2"
		},
		{
			"bufferView":7,
			"componentType":5123,
			"count":36,
			"type":"SCALAR"
		}
	],
	"bufferViews":[
		{
			"buffer":0,
			"byteLength":9744,
			"byteOffset":0,
			"target":34962
		},
		{
			"buffer":0,
			"byteLength":9744,
			"byteOffset":9744,
			"target":34962
		},
		{
			"buffer":0,
			"byteLength":6496,
			"byteOffset":19488,
			"target":34962
		},
		{
			"buffer":0,
			"byteLength":7710,
			"byteOffset":25984,
			"target":34963
		},
		{
			"buffer":0,
			"byteLength":288,
			"byteOffset":33696,
			"target":34962
		},
		{
			"buffer":0,
			"byteLength":288,
			"byteOffset":33984,
			"target":34962
		},
		{
			"buffer":0,
			"byteLength":192,
			"byteOffset":34272,
			"target":34962
		},
		{
			"buffer":0,
			"byteLength":72,
			"byteOffset":34464,
			"target":34963
		}
	],
	"samplers":[
		{
			"magFilter":9729,
			"minFilter":9987
		}
	],
	"buffers":[
		{
			"byteLength":34536,
			"uri":"water.bin"
		}
	]
}
